<svg width="31" height="31" viewBox="0 0 31 31" fill="none" xmlns="http://www.w3.org/2000/svg">
<g id="edit">
<rect x="1" y="1" width="29" height="29" rx="5" stroke="#D2D2D2" stroke-width="2"/>
<path id="Vector" d="M14.375 6.5H6.5C5.90326 6.5 5.33097 6.73705 4.90901 7.15901C4.48705 7.58097 4.25 8.15326 4.25 8.75V24.5C4.25 25.0967 4.48705 25.669 4.90901 26.091C5.33097 26.5129 5.90326 26.75 6.5 26.75H22.25C22.8467 26.75 23.419 26.5129 23.841 26.091C24.2629 25.669 24.5 25.0967 24.5 24.5V16.625" stroke="#D2D2D2" stroke-linecap="round" stroke-linejoin="round"/>
<path id="Vector_2" d="M22.8125 4.81251C23.2601 4.36496 23.8671 4.11353 24.5 4.11353C25.1329 4.11353 25.7399 4.36496 26.1875 4.81251C26.6351 5.26006 26.8865 5.86708 26.8865 6.50001C26.8865 7.13295 26.6351 7.73996 26.1875 8.18751L15.5 18.875L11 20L12.125 15.5L22.8125 4.81251Z" stroke="#D2D2D2" stroke-linecap="round" stroke-linejoin="round"/>
</g>
</svg>
